PathFileType	4	(X/Y/Z)	HSS_squat1.trc
DataRate	CameraRate	NumFrames	NumMarkers	Units	OrigDataRate	OrigDataStartFrame	OrigNumFrames
120.0	120.0	8	44	mm	120.0	409	1088
Frame#	Time		R.Shoulder		Offset		L.Shoulder		R.Elbow		R.Wrist.Radial		R.Wrist		R.Hand		L.Elbow		L.Wrist.Radial		L.Wrist		L.Hand		R.Hip		V.Sacral		L.PSIS		L.Hip		R.Thigh.Upper		R.Thigh.Front		R.Thigh.Rear		X.Shell.Lower.Thigh.Right		R.Knee.Lateral		R.Shank.Upper		R.Shank.Front		R.Shank.Rear		X.Shell.Lower.Shank.Right		R.Ankle.Lateral		R.Heel		R.Toe		L.Thigh.Upper		L.Thigh.Front		L.Thigh.Rear		X.Shell.Lower.Thigh.Left		L.Knee.Lateral		L.Shank.Upper		L.Shank.Front		L.Shank.Rear		X.Shell.Lower.Shank.Left		L.Ankle.Lateral		L.Heel		L.Toe		R.Troc		L.Troc		R.PSIS		L.ASIS		R.ASIS
			X1	Y1	Z1	X2	Y2	Z2	X3	Y3	Z3	X4	Y4	Z4	X5	Y5	Z5	X6	Y6	Z6	X7	Y7	Z7	X8	Y8	Z8	X9	Y9	Z9	X10	Y10	Z10	X11	Y11	Z11	X12	Y12	Z12	X13	Y13	Z13	X14	Y14	Z14	X15	Y15	Z15	X16	Y16	Z16	X17	Y17	Z17	X18	Y18	Z18	X19	Y19	Z19	X20	Y20	Z20	X21	Y21	Z21	X22	Y22	Z22	X23	Y23	Z23	X24	Y24	Z24	X25	Y25	Z25	X26	Y26	Z26	X27	Y27	Z27	X28	Y28	Z28	X29	Y29	Z29	X30	Y30	Z30	X31	Y31	Z31	X32	Y32	Z32	X33	Y33	Z33	X34	Y34	Z34	X35	Y35	Z35	X36	Y36	Z36	X37	Y37	Z37	X38	Y38	Z38	X39	Y39	Z39	X40	Y40	Z40	X41	Y41	Z41	X42	Y42	Z42	X43	Y43	Z43	X44	Y44	Z44

409	3.40000	157.74588	1471.12610	-119.26096	-137.56538	1388.70691	3.44049	-211.64375	1484.11914	-128.80299	240.82388	1109.19580	-210.54305	53.58799	1102.70227	-395.22061	108.17030	1082.69019	-440.32626	35.24133	1091.10950	-488.17877	-305.39111	1134.23743	-237.58601	-161.30779	1094.09802	-445.69843	-104.78091	1101.53638	-402.49692	-81.87211	1085.62683	-484.36948	125.20016	1032.67505	-151.81369	-27.20781	1017.02081	-35.95246	-67.29580	1023.43842	-39.20944	-172.87605	1031.68579	-159.57254	182.56659	697.07367	-184.90929	171.41391	657.98517	-218.23827	193.33279	659.69696	-160.36696	179.95319	625.45343	-188.21346	172.90294	518.53668	-125.74263	234.29117	378.28006	-103.80289	217.00528	332.03229	-131.32280	223.91351	341.57059	-71.30029	221.06578	300.18741	-93.81489	193.80919	72.69105	-81.90257	147.91663	33.50452	-39.90336	200.07825	31.30149	-238.16138	-222.54460	697.37927	-200.32556	-205.58847	645.94092	-219.95885	-238.66922	662.95319	-169.30455	-230.68640	627.17114	-195.30263	-215.84959	510.56378	-127.95531	-273.37253	316.29230	-87.88902	-260.94885	290.22986	-115.80146	-261.98608	276.71591	-57.19006	-268.50714	246.02766	-79.18929	-241.15123	76.04967	-95.54669	-197.34036	34.79099	-41.85255	-241.66002	32.38339	-241.24229	167.58852	883.59167	-163.44725	-212.94524	894.95386	-163.19604	17.24746	1022.49524	-36.67952	-130.34953	996.47211	-225.13878	94.10185	995.33936	-215.01764
410	3.40833	157.60471	1471.44763	-119.10906	-137.62955	1388.89893	3.34792	-211.49217	1484.34668	-128.84727	242.01561	1110.53967	-212.89381	53.76529	1105.64551	-396.76538	108.13972	1086.23901	-442.29318	34.71144	1094.96814	-489.41193	-306.44977	1135.79211	-240.49232	-160.99992	1097.65540	-448.54709	-104.96230	1104.35596	-404.32288	-81.07962	1089.36609	-486.06357	125.34215	1032.75146	-151.27943	-27.18258	1017.21759	-35.38733	-67.24571	1023.62408	-38.69898	-172.83879	1031.72290	-159.11171	182.73262	697.13361	-184.57458	171.75273	658.10272	-217.86932	193.52846	659.77881	-159.90512	180.22752	625.49316	-187.80255	172.96616	518.56348	-125.77268	234.28214	378.26215	-103.94821	217.01692	331.96967	-131.48904	223.89243	341.54507	-71.43634	221.07480	300.17599	-93.89848	193.79604	72.70192	-81.91698	147.90945	33.50014	-39.91902	200.11978	31.29625	-238.18088	-222.64992	697.49054	-199.96263	-205.82414	646.03485	-219.69032	-238.80710	663.01740	-168.97639	-230.94261	627.30676	-194.93440	-215.83247	510.58508	-127.97379	-273.27472	316.29102	-87.93150	-260.88354	290.24091	-115.83106	-261.86850	276.72989	-57.21714	-268.42172	246.04153	-79.18939	-241.16330	76.07140	-95.56625	-197.35265	34.79139	-41.83632	-241.67239	32.40372	-241.24196	167.76318	883.54266	-162.92099	-212.91072	895.01678	-162.63998	17.27925	1022.71802	-36.25028	-130.34431	996.45746	-224.69377	94.15919	995.33209	-214.43866
411	3.41667	157.48412	1471.77637	-119.00138	-137.75044	1389.20532	3.26745	-211.33623	1484.64978	-128.86237	243.18822	1111.97363	-215.22662	53.62511	1107.37439	-398.07999	107.97440	1089.80066	-444.23795	34.25179	1099.04309	-490.72092	-307.43320	1137.51135	-243.17491	-160.62726	1101.19971	-450.43726	-104.96101	1107.28162	-406.01959	-80.22495	1093.12866	-487.64188	125.41386	1032.83801	-150.62840	-27.09954	1017.40625	-34.75850	-67.11708	1023.85461	-38.50183	-172.75560	1031.76294	-158.59019	182.98334	697.19824	-184.19000	172.02249	658.17712	-217.46031	193.64774	659.79529	-159.46773	180.46471	625.54663	-187.50665	173.05266	518.56610	-125.79980	234.27998	378.24014	-104.12798	217.01286	331.92575	-131.62299	223.88071	341.51318	-71.58626	221.04646	300.14651	-94.03201	193.76830	72.70245	-81.92757	147.88026	33.53044	-39.93496	200.10255	31.29276	-238.16597	-222.79951	697.56415	-199.56505	-206.04811	646.11389	-219.44315	-238.95480	663.06592	-168.60503	-231.09430	627.38562	-194.73415	-215.82602	510.61093	-127.99266	-273.19379	316.27945	-88.03296	-260.85989	290.22351	-115.94936	-261.77628	276.74426	-57.25062	-268.34830	246.03294	-79.21471	-241.17184	76.07934	-95.54428	-197.36272	34.78386	-41.82362	-241.71260	32.40944	-241.22742	167.85091	883.56592	-162.31448	-212.82249	895.11285	-162.01170	17.37379	1022.91064	-35.87032	-130.27921	996.29089	-224.25505	94.22211	995.34161	-213.93130
412	3.42500	157.37024	1472.13281	-118.97482	-137.79979	1389.52466	3.21023	-211.18182	1485.01831	-129.02675	244.72200	1113.44238	-218.01163	54.08805	1110.07898	-399.36542	107.96378	1093.40649	-446.22421	33.98437	1102.99658	-492.05380	-308.47406	1139.23926	-245.96136	-160.39658	1104.77246	-452.88278	-105.00072	1110.03662	-407.79553	-79.76131	1097.09131	-489.16479	125.46458	1032.89758	-150.27013	-27.04795	1017.71301	-34.26700	-67.07669	1024.18774	-37.91628	-172.67120	1031.81396	-158.13136	183.25032	697.21893	-183.81981	172.24448	658.21844	-217.14143	193.75298	659.79242	-159.20139	180.70154	625.59436	-187.18073	173.14810	518.59204	-125.85832	234.27434	378.19553	-104.27163	217.03938	331.89572	-131.77563	223.84441	341.47504	-71.70477	221.04231	300.11542	-94.14166	193.73843	72.70411	-81.95807	147.85193	33.53740	-39.93239	200.13571	31.27730	-238.18517	-222.94606	697.63763	-199.22888	-206.23381	646.22998	-219.21742	-239.03400	663.15063	-168.36102	-231.25284	627.48291	-194.54752	-215.83040	510.63599	-128.07106	-273.11536	316.27106	-88.08210	-260.80243	290.18433	-116.03272	-261.69888	276.74106	-57.32597	-268.25562	246.04445	-79.26674	-241.20171	76.11429	-95.58561	-197.38377	34.78672	-41.81672	-241.74760	32.43428	-241.21019	167.78967	883.62140	-161.68056	-212.78537	895.19739	-161.36478	17.36932	1023.14948	-35.30249	-130.23511	996.37628	-223.72408	94.24128	995.31049	-213.34227
413	3.43333	157.24016	1472.53442	-118.94254	-137.85815	1389.80566	3.14506	-210.98689	1485.37756	-129.20285	245.84053	1115.00842	-220.28737	54.08779	1113.00427	-400.80505	107.99911	1096.96191	-448.19632	33.57067	1107.04980	-493.42117	-309.51257	1141.04626	-248.79771	-160.21513	1108.34851	-455.26343	-105.24429	1112.92297	-409.53003	-79.08345	1100.96753	-490.80878	125.56110	1032.98706	-149.94997	-27.01423	1018.04193	-33.63507	-66.96478	1024.53015	-37.27301	-172.55203	1031.85852	-157.62932	183.43289	697.25110	-183.36420	172.47583	658.30585	-216.83757	193.94402	659.81793	-158.81601	180.94290	625.64410	-186.88747	173.18509	518.57513	-125.93414	234.26802	378.15811	-104.38428	217.04562	331.84775	-131.93987	223.79619	341.46533	-71.80401	221.01526	300.05618	-94.31597	193.70238	72.72422	-81.98444	147.83865	33.54158	-39.94957	200.14079	31.28747	-238.16574	-223.11554	697.75079	-198.88428	-206.38795	646.40973	-218.97647	-239.15855	663.18909	-168.04367	-231.40901	627.55347	-194.26230	-215.84265	510.66571	-128.18459	-273.05139	316.26697	-88.22658	-260.78918	290.16360	-116.15452	-261.61526	276.75235	-57.49659	-268.21143	246.04974	-79.38215	-241.22491	76.11277	-95.59993	-197.39035	34.75376	-41.80658	-241.76923	32.46074	-241.20544	167.75381	883.68506	-160.86566	-212.73126	895.22601	-160.77992	17.39182	1023.52972	-34.60799	-130.18025	996.35040	-223.15358	94.17733	995.04993	-212.72871
414	3.44167	157.15697	1472.88440	-118.92902	-137.97661	1390.03845	3.05038	-210.79718	1485.68835	-129.30165	247.02084	1116.65942	-222.71660	54.27511	1115.84802	-402.25064	107.95627	1100.47119	-450.10852	33.38075	1111.02600	-494.90207	-310.53500	1142.87976	-251.61499	-159.92555	1112.04761	-458.11749	-104.10075	1116.45386	-412.26297	-78.29417	1104.89062	-492.28983	125.66267	1033.09448	-149.32561	-26.97741	1018.35645	-33.13713	-66.93352	1024.80396	-36.70918	-172.49362	1031.93713	-157.12935	183.62222	697.32465	-182.89703	172.77415	658.40375	-216.56448	194.16229	659.85974	-158.42877	181.16071	625.71301	-186.61052	173.28049	518.59888	-125.97498	234.26682	378.12280	-104.55161	217.03731	331.81894	-132.13774	223.75986	341.45837	-71.94376	221.00494	300.00504	-94.51202	193.69159	72.72225	-81.98280	147.79459	33.56327	-39.96977	200.15456	31.27811	-238.16525	-223.33423	697.87305	-198.41515	-206.49991	646.61951	-218.75908	-239.26085	663.23712	-167.76547	-231.56544	627.64941	-194.02863	-215.85934	510.71152	-128.35051	-272.99072	316.26712	-88.38183	-260.73853	290.13794	-116.32819	-261.55441	276.77109	-57.65377	-268.16516	246.06169	-79.47632	-241.23767	76.13158	-95.61076	-197.40140	34.75414	-41.78954	-241.80188	32.49154	-241.18501	167.93262	883.70978	-160.39493	-212.69685	895.26294	-160.22253	17.42052	1023.86456	-33.98852	-130.09171	996.27130	-222.42920	94.59345	995.32098	-212.13904
415	3.45000	157.05763	1473.25781	-118.86776	-138.09778	1390.28625	2.93604	-210.59804	1486.01636	-129.37222	248.16957	1118.25293	-225.09027	54.50974	1118.67358	-403.58429	107.94726	1104.11060	-452.11011	33.26856	1115.03394	-496.32614	-311.47333	1144.73499	-254.55463	-159.72429	1115.72559	-460.60831	-104.29585	1119.27136	-413.83939	-77.75491	1108.81836	-493.94193	125.60581	1033.16602	-148.62645	-26.85071	1018.76086	-32.42340	-66.94057	1025.14270	-36.18476	-172.40126	1032.03516	-156.57249	183.81755	697.39496	-182.43404	173.15823	658.48663	-216.13696	194.41316	659.87671	-158.03806	181.38512	625.76294	-186.36299	173.91148	518.57526	-125.80710	234.26308	378.09625	-104.67711	217.03700	331.75928	-132.29356	223.75856	341.46594	-72.06998	220.99745	299.98038	-94.68626	193.66237	72.73660	-82.02110	147.77797	33.57135	-39.98973	200.15482	31.30483	-238.21234	-223.43518	697.99188	-198.13252	-206.69536	646.79791	-218.52649	-239.32669	663.27838	-167.51830	-231.67416	627.74817	-193.88904	-215.86052	510.73312	-128.61804	-272.94540	316.24463	-88.56271	-260.68359	290.09970	-116.58386	-261.52316	276.79819	-57.83422	-268.12766	246.06879	-79.62386	-241.26315	76.13099	-95.62409	-197.41466	34.76005	-41.83286	-241.81567	32.52157	-241.16530	168.19661	883.70251	-159.51259	-212.61000	895.35760	-159.53012	17.41964	1024.18665	-33.41916	-130.02721	996.25281	-221.79623	94.67257	995.30243	-211.47409
416	3.45833	156.93951	1473.67261	-118.82412	-138.16609	1390.62158	2.82723	-210.40184	1486.38745	-129.50616	249.32402	1119.85254	-227.50255	54.74557	1121.64807	-405.25488	107.98240	1107.73157	-454.10950	33.01748	1119.18604	-497.84024	-312.45264	1146.65686	-257.27621	-159.46626	1119.50842	-462.88840	-104.65636	1121.95984	-415.42020	-77.24074	1112.89050	-495.60709	125.65779	1033.25977	-148.01216	-26.87139	1018.99188	-31.78235	-67.03667	1025.51489	-35.55545	-172.36372	1032.12488	-156.01443	184.00189	697.43329	-181.98749	173.38409	658.58545	-215.67952	194.63205	659.87164	-157.55521	181.65181	625.81256	-186.02203	173.94078	518.54755	-125.88042	234.26180	378.05673	-104.82609	217.03069	331.72467	-132.47241	223.75410	341.43442	-72.23159	220.98445	299.95303	-94.89303	193.63599	72.73820	-82.03268	147.76410	33.59307	-39.97788	200.17070	31.30454	-238.22943	-223.49196	698.11139	-197.84076	-206.79649	646.95068	-218.39171	-239.38924	663.28973	-167.33458	-231.75499	627.83722	-193.76378	-215.86230	510.70374	-128.94292	-272.92548	316.23932	-88.74113	-260.65784	290.03317	-116.82090	-261.48267	276.82712	-58.05913	-268.10925	246.06750	-79.78722	-241.28433	76.12818	-95.62141	-197.43439	34.77078	-41.81184	-241.82814	32.50554	-241.14787	168.28679	883.77716	-158.89624	-212.60326	895.43646	-158.98108	17.46867	1024.51062	-33.00237	-130.00278	996.25439	-221.16415	94.50658	995.07599	-210.56497
